HIERARCHY
ROOT joint_Root
{
  OFFSET 0 0 0
  CHANNELS 6 Xposition Yposition Zposition Zrotation Xrotation Yrotation
  JOINT Hips
  {
    OFFSET 0 93.9241 -3
    CHANNELS 6 Xposition Yposition Zposition Zrotation Xrotation Yrotation
    JOINT Spine
    {
      OFFSET 15.7357 0 0
      CHANNELS 6 Xposition Yposition Zposition Zrotation Xrotation Yrotation
      JOINT Chest
      {
        OFFSET 8.98455 -0.406207 0
        CHANNELS 6 Xposition Yposition Zposition Zrotation Xrotation Yrotation
        JOINT Neck
        {
          OFFSET 16.3773 0 0
          CHANNELS 6 Xposition Yposition Zposition Zrotation Xrotation Yrotation
          JOINT Head
          {
            OFFSET 6.45672 0 0
            CHANNELS 6 Xposition Yposition Zposition Zrotation Xrotation Yrotation
            End Site
            {
              OFFSET 0 0 0
            }
          }
        }
        JOINT Shoulder_L
        {
          OFFSET 12.9942 -0.242716 4.98039
          CHANNELS 6 Xposition Yposition Zposition Zrotation Xrotation Yrotation
          JOINT UpperArm_L
          {
            OFFSET 5.34809 0 0
            CHANNELS 6 Xposition Yposition Zposition Zrotation Xrotation Yrotation
            JOINT LowerArm_L
            {
              OFFSET 24.3286 1.87007e-05 0
              CHANNELS 6 Xposition Yposition Zposition Zrotation Xrotation Yrotation
              JOINT Hand_L
              {
                OFFSET 22.2916 0 0
                CHANNELS 6 Xposition Yposition Zposition Zrotation Xrotation Yrotation
                End Site
                {
                  OFFSET 0 0 0
                }
              }
            }
          }
        }
        JOINT Shoulder_R
        {
          OFFSET 12.9945 -0.242716 -4.98039
          CHANNELS 6 Xposition Yposition Zposition Zrotation Xrotation Yrotation
          JOINT UpperArm_R
          {
            OFFSET -5.34813 0 0
            CHANNELS 6 Xposition Yposition Zposition Zrotation Xrotation Yrotation
            JOINT LowerArm_R
            {
              OFFSET -24.3289 0.000322201 0
              CHANNELS 6 Xposition Yposition Zposition Zrotation Xrotation Yrotation
              JOINT Hand_R
              {
                OFFSET -22.2915 -0.000108084 0
                CHANNELS 6 Xposition Yposition Zposition Zrotation Xrotation Yrotation
                End Site
                {
                  OFFSET 0 0 0
                }
              }
            }
          }
        }
      }
    }
    JOINT UpperLeg_L
    {
      OFFSET -2.19248 -6.46944 0
      CHANNELS 6 Xposition Yposition Zposition Zrotation Xrotation Yrotation
      JOINT LowerLeg_L
      {
        OFFSET 39.0811 0 -1.23785e-05
        CHANNELS 6 Xposition Yposition Zposition Zrotation Xrotation Yrotation
        JOINT Foot_L
        {
          OFFSET 40.9854 0 -1.26872e-05
          CHANNELS 6 Xposition Yposition Zposition Zrotation Xrotation Yrotation
          JOINT Toes_L
          {
            OFFSET 11.7543 0 0
            CHANNELS 6 Xposition Yposition Zposition Zrotation Xrotation Yrotation
            End Site
            {
              OFFSET 0 0 0
            }
          }
        }
      }
    }
    JOINT UpperLeg_R
    {
      OFFSET -2.19251 6.46944 0
      CHANNELS 6 Xposition Yposition Zposition Zrotation Xrotation Yrotation
      JOINT LowerLeg_R
      {
        OFFSET -39.0811 -0.00228153 -0.0401928
        CHANNELS 6 Xposition Yposition Zposition Zrotation Xrotation Yrotation
        JOINT Foot_R
        {
          OFFSET -40.9854 0 0
          CHANNELS 6 Xposition Yposition Zposition Zrotation Xrotation Yrotation
          JOINT Toes_R
          {
            OFFSET -11.7543 0 0
            CHANNELS 6 Xposition Yposition Zposition Zrotation Xrotation Yrotation
            End Site
            {
              OFFSET 0 0 0
            }
          }
        }
      }
    }
  }
}
MOTION
Frames:	7
Frame Time:	0.0333333
0 0 0 0 0 -0 -0.450885 91.2239 165.828 88.467 2.10211 -0.113145 15.7357 5.1072e-06 -5.51765e-07 166.756 81.8116 -167.761 8.98455 -0.406207 -4.3199e-07 -3.9496 16.0332 -1.46404 16.3773 -1.3905e-06 -6.99897e-07 -12.9398 -7.21317 0.363458 6.45672 -1.25837e-06 -1.02172e-07 -6.61267 -26.1727 0.150129 12.9942 -0.242716 4.98039 -89.3463 -1.8087 -85.1238 5.34809 -7.22636e-06 -6.2814e-07 -78.048 12.0461 35.1142 24.3286 1.87007e-05 4.90208e-06 -0.47086 -0.862953 -28.6238 22.2916 -9.88446e-07 4.63217e-06 12.474 5.39041 -2.62808 12.9945 -0.242716 -4.98039 89.7732 -4.91328 -107.647 -5.34813 -1.25947e-06 -3.79883e-06 -68.8315 -31.6852 -51.0768 -24.3289 0.000322201 -8.65921e-06 -27.98 -62.1806 -30.9934 -22.2915 -0.000108084 -4.47941e-06 24.7495 5.11957 4.6609 -2.19248 -6.46944 -1.22534e-07 -177.955 6.3469 -34.458 39.0811 -6.73843e-06 -1.23785e-05 -0.215613 0.218998 42.5573 40.9854 -6.48686e-06 -1.26872e-05 9.06285 -8.42895 -46.1094 11.7543 -2.30145e-07 3.05095e-06 0.441725 -0.535493 -21.6364 -2.19251 6.46944 -1.45247e-06 -170.797 14.3628 179.764 -39.0811 -0.00228153 -0.0401928 -0.000593027 0.0498601 15.8335 -40.9854 7.72618e-06 5.99936e-06 6.8893 -5.49927 -67.9245 -11.7543 -5.6619e-06 -5.58687e-06 0.152424 -0.161144 -17.8088 
0 0 0 0 0 -0 -0.309088 90.8008 169.321 87.5325 0.838293 -0.0364092 15.7357 5.1072e-06 -5.51764e-07 166.794 81.5975 -167.308 8.98455 -0.406207 -4.3199e-07 -3.93391 16.4024 -0.466263 16.3773 -1.3905e-06 -6.99897e-07 -12.6342 -6.68172 0.242893 6.45672 -1.25837e-06 -1.02172e-07 -6.82803 -25.6943 -0.227027 12.9942 -0.242716 4.98039 -89.3915 -1.64565 -84.7033 5.34809 -7.22636e-06 -6.2814e-07 -78.7607 11.8705 35.7291 24.3286 1.87007e-05 4.90208e-06 -0.190358 -0.353448 -28.3059 22.2916 -9.88446e-07 4.63217e-06 12.4519 5.38508 -2.45882 12.9945 -0.242716 -4.98039 89.7714 -5.19955 -107.521 -5.34813 -1.25947e-06 -3.79883e-06 -68.1034 -31.4615 -53.7824 -24.3289 0.000322201 -8.65921e-06 -28.7302 -62.1131 -31.8051 -22.2915 -0.000108084 -4.47941e-06 24.6366 5.10609 4.97313 -2.19248 -6.46944 -1.22533e-07 -178.997 1.72274 -31.1596 39.0811 -6.73843e-06 -1.23785e-05 -0.0923351 0.173422 25.0915 40.9854 -6.48686e-06 -1.26872e-05 5.97793 -5.25768 -48.2004 11.7543 -2.30145e-07 3.05095e-06 0.427218 -0.516297 -21.4612 -2.19251 6.46944 -1.45247e-06 -170.002 12.5808 -177.019 -39.0811 -0.00228153 -0.0401928 0.0375613 -0.0978709 14.6437 -40.9854 7.72618e-06 5.99936e-06 8.39391 -7.16042 -68.8698 -11.7543 -5.6619e-06 -5.58687e-06 0.27536 -0.296327 -18.8258 
0 0 0 0 0 -0 -0.349101 89.776 173.235 86.1686 -0.261718 0.537125 15.7357 5.1072e-06 -5.51765e-07 166.508 81.3958 -166.367 8.98455 -0.406207 -4.3199e-07 -3.85418 16.7089 0.849118 16.3773 -1.3905e-06 -6.99897e-07 -12.0607 -6.24655 0.148692 6.45672 -1.25837e-06 -1.02172e-07 -7.00113 -25.3228 -0.419786 12.9942 -0.242716 4.98039 -89.3001 -1.88175 -84.5931 5.34809 -7.22636e-06 -6.2814e-07 -79.8332 11.6993 36.3641 24.3286 1.87007e-05 4.90208e-06 -0.0688046 -0.130328 -27.8078 22.2916 -9.88446e-07 4.63217e-06 12.3544 5.38301 -2.39332 12.9945 -0.242716 -4.98039 89.7426 -5.74779 -107.568 -5.34813 -1.25947e-06 -3.79883e-06 -68.0926 -31.6977 -56.2785 -24.3289 0.000322201 -8.65921e-06 -30.1526 -62.6083 -33.1983 -22.2915 -0.000108084 -4.47941e-06 24.0749 5.09631 5.19767 -2.19248 -6.46944 -1.22534e-07 -179.814 -3.13263 -26.5754 39.0811 -6.73843e-06 -1.23785e-05 -0.0147862 0.0697963 7.83426 40.9854 -6.48686e-06 -1.26872e-05 1.21731 -2.09437 -49.2324 11.7543 -2.30145e-07 3.05095e-06 0.420731 -0.507746 -21.383 -2.19251 6.46944 -1.45247e-06 -169.092 12.3265 -174.959 -39.0811 -0.00228153 -0.0401928 0.0797519 -0.203753 17.4343 -40.9854 7.72618e-06 5.99936e-06 8.49772 -7.97616 -71.5998 -11.7543 -5.6619e-06 -5.58687e-06 0.38244 -0.418099 -19.728 
0 0 0 0 0 -0 -0.387551 88.6413 177.385 85.2211 -0.759614 0.893796 15.7357 5.1072e-06 -5.51765e-07 165.936 81.3508 -165.35 8.98455 -0.406207 -4.3199e-07 -3.72735 16.7113 1.72689 16.3773 -1.3905e-06 -6.99897e-07 -11.8708 -5.96295 0.125682 6.45672 -1.25837e-06 -1.02172e-07 -7.20714 -24.9384 -0.589576 12.9942 -0.242716 4.98039 -89.2952 -1.88476 -84.4919 5.34809 -7.22636e-06 -6.2814e-07 -80.5365 11.9136 36.7336 24.3286 1.87007e-05 4.90208e-06 0.0789284 0.152873 -27.2858 22.2916 -9.88446e-07 4.63217e-06 12.037 5.39033 -2.62583 12.9945 -0.242716 -4.98039 89.7532 -5.81495 -107.434 -5.34813 -1.25947e-06 -3.79883e-06 -68.2034 -32.1343 -59.0741 -24.3289 0.000322201 -8.65921e-06 -30.5678 -62.733 -33.608 -22.2915 -0.000108084 -4.47941e-06 23.6474 5.08891 5.3662 -2.19248 -6.46944 -1.22533e-07 -179.5 -3.80105 -27.2159 39.0811 -6.73843e-06 -1.23785e-05 -0.0011246 -0.00230971 3.56511 40.9854 -6.48686e-06 -1.26872e-05 0.252893 -1.57478 -55.0239 11.7543 -2.30145e-07 3.05095e-06 0.412369 -0.496776 -21.2826 -2.19251 6.46944 -1.45247e-06 -168.803 13.2206 -173.183 -39.0811 -0.00228153 -0.0401928 0.148866 -0.340219 20.5806 -40.9854 7.72618e-06 5.99936e-06 9.0712 -8.357 -73.6668 -11.7543 -5.6619e-06 -5.58687e-06 0.659068 -0.751711 -22.1385 
0 0 0 0 0 -0 -0.310001 87.7698 181.879 85.0729 -1.10067 0.421179 15.7357 5.1072e-06 -5.51764e-07 166.66 81.4189 -166.043 8.98455 -0.406207 -4.3199e-07 -3.98166 16.6253 1.82301 16.3773 -1.3905e-06 -6.99897e-07 -11.9311 -5.77668 0.30761 6.45672 -1.25837e-06 -1.02172e-07 -7.4623 -24.7131 -0.684941 12.9942 -0.242716 4.98039 -89.4332 -1.49839 -84.276 5.34809 -7.22636e-06 -6.2814e-07 -80.4924 12.1501 37.0557 24.3286 1.87007e-05 4.90208e-06 0.454115 0.891744 -26.9834 22.2916 -9.88446e-07 4.63217e-06 12.0945 5.38968 -2.6055 12.9945 -0.242716 -4.98039 89.7762 -5.43933 -107.36 -5.34813 -1.25947e-06 -3.79883e-06 -68.0248 -32.4312 -61.2997 -24.3289 0.000322201 -8.65921e-06 -31.0157 -62.4272 -34.1564 -22.2915 -0.000108084 -4.47941e-06 23.4133 5.08468 5.46227 -2.19248 -6.46944 -1.22534e-07 -179.191 -2.34406 -27.3135 39.0811 -6.73843e-06 -1.23785e-05 0.00100238 -0.0614853 1.21269 40.9854 -6.48686e-06 -1.26872e-05 3.96125 -1.66148 -56.9116 11.7543 -2.30145e-07 3.05095e-06 0.387404 -0.464225 -20.9838 -2.19251 6.46944 -1.45247e-06 -169.976 14.9605 -172.399 -39.0811 -0.00228153 -0.0401928 0.208776 -0.405148 24.034 -40.9854 7.72618e-06 5.99936e-06 9.64991 -6.92193 -73.2991 -11.7543 -5.6619e-06 -5.58687e-06 0.970879 -1.40291 -26.1324 
0 0 0 0 0 -0 -0.179102 87.1439 187.09 85.3877 -1.77094 -0.587087 15.7357 5.1072e-06 -5.51764e-07 170.054 81.4016 -169.716 8.98455 -0.406207 -4.3199e-07 -4.96265 16.8841 1.41712 16.3773 -1.3905e-06 -6.99897e-07 -12.0978 -5.82477 0.571163 6.45672 -1.25837e-06 -1.02172e-07 -6.6895 -24.6297 -0.500964 12.9942 -0.242716 4.98039 -89.4105 -1.55167 -84.1924 5.34809 -7.22636e-06 -6.2814e-07 -80.3153 12.4572 37.4683 24.3286 1.87007e-05 4.90208e-06 0.588441 1.18246 -26.4576 22.2916 -9.88446e-07 4.63217e-06 12.0072 5.38801 -2.55182 12.9945 -0.242716 -4.98039 89.7704 -5.33875 -107.466 -5.34813 -1.25947e-06 -3.79883e-06 -69.576 -33.0115 -62.7723 -24.3289 0.000322201 -8.65921e-06 -33.2245 -62.5844 -36.424 -22.2915 -0.000108084 -4.47941e-06 22.8431 5.07312 5.72289 -2.19248 -6.46944 -1.22533e-07 -178.778 -1.3984 -28.0179 39.0811 -6.73843e-06 -1.23785e-05 -0.000934982 -0.00462313 4.28786 40.9854 -6.48686e-06 -1.26872e-05 1.96456 -1.00393 -54.3199 11.7543 -2.30145e-07 3.05095e-06 0.464309 -0.565632 -21.9107 -2.19251 6.46944 -1.45247e-06 -171.771 15.5836 -171.987 -39.0811 -0.00228153 -0.0401928 0.184959 -0.294996 27.0844 -40.9854 7.72618e-06 5.99936e-06 9.95928 -5.00346 -68.9267 -11.7543 -5.6619e-06 -5.58687e-06 -0.684659 -3.94117 -35.3869 
0 0 0 0 0 -0 0.276998 87.0431 192.421 87.1027 -0.928304 -2.84995 15.7357 5.1072e-06 -5.51765e-07 175.517 81.7837 -176.124 8.98455 -0.406207 -4.3199e-07 -6.54709 16.4289 -0.276066 16.3773 -1.3905e-06 -6.99897e-07 -12.8653 -6.18954 0.782458 6.45672 -1.25837e-06 -1.02172e-07 -5.82124 -24.6442 -0.278289 12.9942 -0.242716 4.98039 -89.5713 -1.12817 -84.1896 5.34809 -7.22636e-06 -6.2814e-07 -79.102 13.0053 37.5431 24.3286 1.87007e-05 4.90208e-06 0.56781 1.20036 -25.318 22.2916 -9.88446e-07 4.63217e-06 11.6915 5.38735 -2.53068 12.9945 -0.242716 -4.98039 89.8514 -4.48771 -106.898 -5.34813 -1.25947e-06 -3.79883e-06 -70.4668 -32.9193 -64.1179 -24.3289 0.000322201 -8.65921e-06 -32.7782 -62.222 -36.0542 -22.2915 -0.000108084 -4.47941e-06 22.5955 5.06652 5.87062 -2.19248 -6.46944 -1.22534e-07 178.739 -0.117244 -33.7244 39.0811 -6.73843e-06 -1.23785e-05 0.0340374 -0.130984 13.0253 40.9854 -6.48686e-06 -1.26872e-05 5.00982 -0.187093 -43.6258 11.7543 -2.30145e-07 3.05095e-06 0.378134 -0.452242 -20.8734 -2.19251 6.46944 -1.45247e-06 -174.331 16.2915 -173.317 -39.0811 -0.00228153 -0.0401928 0.120264 -0.145783 29.7507 -40.9854 7.72618e-06 5.99936e-06 10.1289 -4.12803 -62.0063 -11.7543 -5.6619e-06 -5.58687e-06 1.22825 -4.42898 -43.709 
